PathFileType	4	(X/Y/Z)	..\data\2015032\dynamic\2015032_C4_03.trc
DataRate	CameraRate	NumFrames	NumMarkers	Units	OrigDataRate	OrigDataStartFrame	OrigNumFrames
100.000000	100.000000	4	48	mm	100.000000	25	203
Frame#	Time	L_IAS			L_IPS			R_IPS			R_IAS			L_FTC			L_FLE			L_FAX			L_TTC			L_FAL			L_FCC			L_FM1			L_FM2			L_FM5			R_FTC			R_FLE			R_FAX			R_TTC			R_FAL			R_FCC			R_FM1			R_FM2			R_FM5			CV7			TV10			SXS			SJN			L_SIA			L_SRS			L_SAA			L_SAE			L_HLE			L_HME			L_UOA			L_RSP			L_UHE			L_HM2			L_HM5			R_SIA			R_SRS			R_SAA			R_SAE			R_HLE			R_HME			R_UOA			R_RSP			R_UHE			R_HM2			R_HM5			
		X1	Y1	Z1	X2	Y2	Z2	X3	Y3	Z3	X4	Y4	Z4	X5	Y5	Z5	X6	Y6	Z6	X7	Y7	Z7	X8	Y8	Z8	X9	Y9	Z9	X10	Y10	Z10	X11	Y11	Z11	X12	Y12	Z12	X13	Y13	Z13	X14	Y14	Z14	X15	Y15	Z15	X16	Y16	Z16	X17	Y17	Z17	X18	Y18	Z18	X19	Y19	Z19	X20	Y20	Z20	X21	Y21	Z21	X22	Y22	Z22	X23	Y23	Z23	X24	Y24	Z24	X25	Y25	Z25	X26	Y26	Z26	X27	Y27	Z27	X28	Y28	Z28	X29	Y29	Z29	X30	Y30	Z30	X31	Y31	Z31	X32	Y32	Z32	X33	Y33	Z33	X34	Y34	Z34	X35	Y35	Z35	X36	Y36	Z36	X37	Y37	Z37	X38	Y38	Z38	X39	Y39	Z39	X40	Y40	Z40	X41	Y41	Z41	X42	Y42	Z42	X43	Y43	Z43	X44	Y44	Z44	X45	Y45	Z45	X46	Y46	Z46	X47	Y47	Z47	X48	Y48	Z48	

26	0.25	115.4280014038086	933.5771484375002	-373.1036376953126	-34.32648086547852	945.1431274414065	-297.3377075195313	-28.76838111877442	950.4580688476565	-188.6717834472657	133.4431304931641	948.4505615234377	-138.1921539306641	45.10599517822266	857.068542480469	-418.2014465332032	48.77805328369142	445.956024169922	-393.3924255371095	13.88822650909424	401.4278564453126	-397.8486938476564	61.28126525878908	353.4505920410157	-359.6738891601563	-233.2374725341797	181.380599975586	-348.4196166992188	-284.7384033203126	186.9190216064453	-296.5603332519532	-158.7317504882813	53.49641799926759	-276.8935241699219	-164.5369415283203	46.62783432006837	-330.4707641601563	-207.6894989013672	56.10377883911134	-368.0868835449219	47.78038787841798	855.5684814453127	-78.15407562255861	135.5985107421875	445.296356201172	-122.5058746337891	134.956787109375	390.3489074707032	-126.9722137451172	188.7176055908203	390.6927795410157	-185.8180847167969	111.4815521240235	60.48826980590822	-203.7732849121094	86.2877883911133	21.91205787658692	-267.0847167968751	278.5516052246094	27.37300872802735	-229.8475189208985	263.7954406738282	35.90032196044923	-175.9949493408203	204.8547515869141	21.83768081665039	-139.3186340332032	-22.01854705810547	1435.175659179688	-240.1936645507813	-77.05429840087892	1206.47265625	-242.2482910156251	104.1148986816407	1179.366943359375	-245.2308502197266	76.87258911132814	1345.003662109375	-237.8188476562501	-92.53257751464845	1241.285766601563	-361.9902038574219	-64.29857635498048	1365.1015625	-348.2656250000001	14.92363643646241	1377.267456054688	-430.0531311035157	61.9589080810547	1376.606201171875	-432.5713806152345	50.9837989807129	1068.803344726563	-486.1004943847657	2.746508359909058	1052.933227539063	-425.231414794922	9.210074424743654	1031.638305664063	-469.0129699707032	160.7335815429688	845.7203369140627	-421.2793273925782	125.812973022461	845.3772583007815	-490.1416625976564	192.7577819824219	768.6037597656252	-416.5940856933595	124.2973556518555	768.5175781250002	-491.8834533691407	-98.30998229980472	1236.760620117188	-130.4378204345703	-70.03151702880861	1355.524291992188	-142.604721069336	-7.618958950042726	1361.120971679688	-50.67208862304689	35.8459701538086	1361.955200195313	-36.11885833740235	-15.30148696899414	1054.058471679688	-17.91866302490235	-33.07051086425782	1051.295288085938	-89.79939270019533	-45.34471511840821	1026.685180664063	-45.1994857788086	76.11315917968751	818.646911621094	-52.59626770019533	22.21775436401368	817.1362304687502	-1.927788615226746	98.16854095458987	732.7141723632814	-43.17169570922852	8.491148948669435	743.9725341796876	1.243478536605835	
27	0.26	121.3553619384766	933.9685668945315	-372.2259521484376	-28.05374717712403	945.2247314453127	-295.6334228515626	-21.753812789917	950.9696044921877	-187.0620727539063	140.6520385742188	948.7917480468752	-137.4127349853516	51.27686691284181	857.151062011719	-416.7508239746095	66.46518707275392	446.6844482421876	-393.1554565429689	31.80001449584962	402.5349121093751	-397.8863220214845	78.41223144531251	354.3143615722657	-359.1808166503907	-219.7973022460938	188.288803100586	-349.9133300781251	-271.5085449218751	194.2001190185547	-297.9598693847657	-147.8885040283203	57.31626510620119	-281.5852050781251	-153.8131408691407	51.21035766601564	-335.0874938964844	-196.6966705322266	63.34918594360353	-372.1552124023438	54.91133880615236	856.2347412109377	-76.80339813232423	138.6988677978516	445.0094604492189	-121.4819869995117	137.4621124267578	390.0577697753907	-126.0911178588867	190.8854064941407	390.1705322265626	-185.2854309082032	111.6955490112305	60.46599578857423	-203.8578491210938	86.2414016723633	21.96973609924317	-267.0935058593751	278.5733337402344	26.47940254211426	-230.2200012207032	264.0178833007813	35.44263458251954	-176.1266326904297	204.9102020263672	21.7264575958252	-139.3445281982422	-14.72190666198731	1435.640991210938	-238.6601104736329	-69.8689651489258	1207.00927734375	-240.1778717041016	111.1303405761719	1179.720458984375	-244.6356506347657	84.21532440185548	1345.381591796875	-237.0409851074219	-86.38555145263673	1241.677490234375	-359.6818847656251	-57.88609695434572	1365.5009765625	-346.2626342773438	20.71721267700196	1377.549438476563	-428.8236389160157	67.7176971435547	1376.763305664063	-431.7305603027345	54.88204193115236	1068.959228515625	-485.2040405273439	6.936814785003664	1053.509765625	-424.1368408203126	12.96272373199463	1032.347045898438	-467.9374084472657	162.1744079589844	844.2439575195315	-422.1281127929689	126.832992553711	844.7727050781252	-490.8107910156251	193.2107086181641	766.7073364257814	-418.1095275878907	124.305290222168	767.9512329101564	-492.9822082519532	-90.11850738525392	1237.345703125	-128.0625610351563	-61.82726669311525	1356.08349609375	-140.5832214355469	1.412994742393494	1361.651611328125	-49.1546974182129	45.00299453735352	1362.427368164063	-34.9887924194336	-5.02234172821045	1054.294311523438	-15.61393642425537	-24.06163406372071	1051.48828125	-87.23947143554689	-35.37724685668946	1026.719360351563	-42.33563995361329	86.75559997558595	819.4049072265627	-51.33245086669923	33.56169509887696	817.7115478515627	0.029468247666955	109.4054183959961	733.5250244140626	-42.14192581176759	20.32540321350098	744.4846801757814	3.455419778823853	
28	0.27	127.2008819580078	934.4323730468752	-371.2955322265626	-21.88788604736328	945.3380126953127	-293.9814453125001	-14.90314483642578	951.4625244140627	-185.5050201416016	147.6812896728516	949.1573486328127	-136.624755859375	57.44544219970705	857.3319091796877	-415.3625793457032	83.9023895263672	447.7878417968751	-392.6169738769532	49.48042678833009	403.9611816406251	-397.5915832519532	95.52195739746095	355.5659484863282	-358.4173583984376	-205.6021728515626	194.5730285644532	-351.0701904296876	-257.5409851074219	200.1681213378907	-298.9482727050782	-135.2599792480469	60.83454513549806	-286.7826232910157	-141.3062133789063	55.96999359130861	-340.2725830078126	-184.02490234375	70.76412963867189	-376.6732788085938	61.8449058532715	856.8905029296877	-75.48848724365236	141.5429229736328	444.7332153320314	-120.4325027465821	139.7174835205078	389.778289794922	-125.1847915649414	192.8447570800782	389.6773986816407	-184.6710510253907	111.8683471679688	60.43349075317384	-203.9191131591797	86.19776153564455	22.0387020111084	-267.0746765136719	278.5913391113282	25.70735740661622	-230.5170135498047	264.2124328613282	35.03738021850587	-176.1828765869141	204.9544067382813	21.59027862548828	-139.3419036865235	-7.455005645751955	1436.137451171875	-237.1565856933594	-62.81038665771486	1207.60302734375	-238.1245880126954	118.0020523071289	1180.094116210938	-244.1055603027344	91.47725677490236	1345.753784179688	-236.3121795654297	-80.37734222412111	1242.150024414063	-357.3778991699219	-51.52010726928712	1365.976684570313	-344.3135986328126	26.41264343261719	1377.848266601563	-427.6128845214845	73.38564300537111	1376.929809570313	-430.925994873047	58.719051361084	1069.1494140625	-484.2899169921876	11.11688899993897	1054.083374023438	-423.0028686523439	16.68644142150879	1033.06640625	-466.8249816894532	163.5569152832032	842.8137817382815	-423.0079040527345	127.7906646728516	844.2280273437502	-491.4819641113282	193.5867614746094	764.8720092773439	-419.6640930175782	124.2453536987305	767.4614868164064	-494.0918273925782	-82.0137176513672	1238.0341796875	-125.6697769165039	-53.66478729248048	1356.718017578125	-138.5744171142578	10.45195865631104	1362.234375	-47.67522811889649	54.1871681213379	1362.925903320313	-33.92859649658204	5.446314334869386	1054.536376953125	-13.31400585174561	-14.95810794830323	1051.670776367188	-84.6430130004883	-25.32600593566895	1026.818481445313	-39.47555160522462	97.59352874755862	820.2493286132815	-50.03065109252931	45.09632873535157	818.3355712890627	2.007749080657959	120.7892074584961	734.3327026367189	-41.15670776367188	32.37100219726563	745.0457763671876	5.71506690979004	
29	0.28	132.9902038574219	934.9697265625002	-370.2881469726563	-15.80357170104981	945.5103149414065	-292.3922424316407	-8.196456909179689	951.9426879882815	-184.0058288574219	154.5483551025391	949.5571289062502	-135.8084411621094	63.67307662963869	857.6235961914065	-414.0274047851564	100.9990997314453	449.2514648437501	-391.7843627929689	66.8313674926758	405.698211669922	-396.9786376953126	112.5456848144532	357.1807556152344	-357.4406433105469	-190.6790466308594	200.0403900146485	-351.9202575683594	-242.8718414306641	204.6617889404297	-299.5713500976563	-120.8635864257813	63.91365051269533	-292.3689880371094	-127.0316314697266	60.73852539062501	-345.8963317871094	-169.6843566894532	78.10019683837892	-381.5200500488282	68.59222412109376	857.532409667969	-74.21189117431642	144.1027221679688	444.4739685058595	-119.3517074584961	141.7084503173828	389.5131835937501	-124.2467727661133	194.5948181152344	389.2158813476564	-183.9540557861328	112.0014038085938	60.38719177246095	-203.9535675048829	86.1574172973633	22.1130599975586	-267.0223693847657	278.6082763671876	25.07179260253907	-230.7361145019532	264.3805236816407	34.68272018432618	-176.1647338867188	204.9860382080079	21.42770385742188	-139.2974548339844	-0.2333788722753525	1436.66650390625	-235.6860351562501	-55.86769485473634	1208.246337890625	-236.0921173095704	124.7475967407227	1180.50390625	-243.6289062500001	98.65405273437503	1346.134155273438	-235.6272430419922	-74.48683929443361	1242.699340820313	-355.0871276855469	-45.21002960205079	1366.517700195313	-342.4118652343751	32.0052833557129	1378.180541992188	-426.4157714843751	78.95067596435548	1377.130493164063	-430.152313232422	62.48120880126955	1069.400146484375	-483.3533020019532	15.2890625	1054.674926757813	-421.8099975585939	20.37601852416993	1033.815185546875	-465.6604614257814	164.8960876464844	841.4611816406252	-423.9193420410157	128.6917724609375	843.7673950195315	-492.1486206054689	193.8936767578126	763.1223754882814	-421.2503051757814	124.1177291870117	767.0733032226564	-495.1988830566407	-73.99099731445314	1238.818481445313	-123.2678375244141	-45.56293106079102	1357.422119140625	-136.5862121582032	19.46541404724121	1362.878784179688	-46.2397575378418	63.36380004882814	1363.4697265625	-32.9401969909668	16.07860565185547	1054.809692382813	-11.03858852386475	-5.753432273864747	1051.860595703125	-82.03110504150392	-15.21195411682129	1027.013793945313	-36.65375137329102	108.6095428466797	821.1799926757815	-48.70193099975587	56.80194091796876	819.0264282226565	3.99785876274109	132.3025360107422	735.1543579101564	-40.21150970458985	44.60312271118165	745.6751098632814	8.010903358459474	
